
<svg xmlns="http://www.w3.org/2000/svg" viewBox="0 0 200 200" fill="none">
  <circle cx="100" cy="100" r="90" fill="#a4fc79"/>
  <path d="M100 50C72.386 50 50 72.386 50 100C50 127.614 72.386 150 100 150C127.614 150 150 127.614 150 100C150 72.386 127.614 50 100 50ZM100 130C83.431 130 70 116.569 70 100C70 83.431 83.431 70 100 70C116.569 70 130 83.431 130 100C130 116.569 116.569 130 100 130Z" fill="white"/>
  <path d="M100 80C88.954 80 80 88.954 80 100C80 111.046 88.954 120 100 120C111.046 120 120 111.046 120 100C120 88.954 111.046 80 100 80Z" fill="#333"/>
</svg>
